# xmcd
#
# Track frame offsets:
#	182
#	10687
#	23152
#	44412
#	58997
#	74380
#	95207
#	108450
#	125205
#	148382
#	166012
#	187565
#	206362
#	226595
#	244172
#	262967
#	277525
#
# Disc length: 3856 seconds
#
# Revision: 0
# Processed by: cddbd v1.4b42PL1 Copyright (c) Steve Scherf et al.
# Submitted via: audiograbber 1.80
#
DISCID=e70f0e11
DTITLE=Harry Belafonte - Greatest Hits Disc 3
DYEAR=1900
DGENRE=
TTITLE0=The Day In The Life Of A Fool
TTITLE1=By The Time I Get To Phoenix
TTITLE2=And I Love You So
TTITLE3=Marianne
TTITLE4=Unchained Melody
TTITLE5=One For My Baby (And One More For The Road)
TTITLE6=Hallelujah, I Love Her So
TTITLE7=Oh Bess, Oh Where's My Bess-
TTITLE8=God Bless The Child
TTITLE9=Darlin Cora
TTITLE10=Sylvie
TTITLE11=Cotton Fields
TTITLE12=When The Saints Go Marchin In
TTITLE13=Hava Nageela
TTITLE14=A Hole In The Bucket
TTITLE15=Train Song
TTITLE16=Irene
EXTD=
EXTT0=
EXTT1=
EXTT2=
EXTT3=
EXTT4=
EXTT5=
EXTT6=
EXTT7=
EXTT8=
EXTT9=
EXTT10=
EXTT11=
EXTT12=
EXTT13=
EXTT14=
EXTT15=
EXTT16=
PLAYORDER=
